<mxfile host="Electron" agent="Mozilla/5.0 (Windows NT 10.0; Win64; x64) AppleWebKit/537.36 (KHTML, like Gecko) draw.io/27.0.9 Chrome/134.0.6998.205 Electron/35.4.0 Safari/537.36" version="27.0.9">
  <diagram name="Page-1" id="mPRS2LSYTp-3yB5t3_2v">
    <mxGraphModel dx="1809" dy="649" grid="1" gridSize="10" guides="1" tooltips="1" connect="1" arrows="1" fold="1" page="1" pageScale="1" pageWidth="827" pageHeight="1169" math="0" shadow="0">
      <root>
        <mxCell id="0" />
        <mxCell id="1" parent="0" />
        <mxCell id="gEqkEuhPKTjkz4cQfdiY-15" style="edgeStyle=orthogonalEdgeStyle;rounded=0;orthogonalLoop=1;jettySize=auto;html=1;endArrow=open;startFill=0;endFill=0;" parent="1" source="gEqkEuhPKTjkz4cQfdiY-1" target="gEqkEuhPKTjkz4cQfdiY-2" edge="1">
          <mxGeometry relative="1" as="geometry">
            <Array as="points">
              <mxPoint x="473" y="198" />
              <mxPoint x="473" y="198" />
            </Array>
          </mxGeometry>
        </mxCell>
        <mxCell id="gEqkEuhPKTjkz4cQfdiY-18" value="- actors" style="edgeLabel;html=1;align=center;verticalAlign=middle;resizable=0;points=[];" parent="gEqkEuhPKTjkz4cQfdiY-15" vertex="1" connectable="0">
          <mxGeometry y="-10" relative="1" as="geometry">
            <mxPoint as="offset" />
          </mxGeometry>
        </mxCell>
        <mxCell id="gEqkEuhPKTjkz4cQfdiY-20" value="1..n" style="edgeLabel;html=1;align=right;verticalAlign=middle;resizable=0;points=[];" parent="gEqkEuhPKTjkz4cQfdiY-15" vertex="1" connectable="0">
          <mxGeometry x="0.9" y="-10" relative="1" as="geometry">
            <mxPoint as="offset" />
          </mxGeometry>
        </mxCell>
        <mxCell id="gEqkEuhPKTjkz4cQfdiY-1" value="&lt;p style=&quot;margin:0px;margin-top:4px;text-align:center;&quot;&gt;&lt;b&gt;Movie&lt;/b&gt;&lt;/p&gt;&lt;hr size=&quot;1&quot; style=&quot;border-style:solid;&quot;&gt;&lt;p style=&quot;margin:0px;margin-left:4px;&quot;&gt;- id: int&lt;/p&gt;&lt;p style=&quot;margin:0px;margin-left:4px;&quot;&gt;- title: String&lt;/p&gt;&lt;p style=&quot;margin:0px;margin-left:4px;&quot;&gt;- poster: Image&lt;/p&gt;&lt;p style=&quot;margin:0px;margin-left:4px;&quot;&gt;- description: String&lt;/p&gt;&lt;p style=&quot;margin:0px;margin-left:4px;&quot;&gt;- genre: Genre&lt;/p&gt;&lt;p style=&quot;margin:0px;margin-left:4px;&quot;&gt;- releaseYear: int&lt;/p&gt;&lt;p style=&quot;margin:0px;margin-left:4px;&quot;&gt;- countryOfProduction: Country&lt;/p&gt;&lt;p style=&quot;margin:0px;margin-left:4px;&quot;&gt;- ageRating: AgeRating&lt;/p&gt;&lt;hr size=&quot;1&quot; style=&quot;border-style:solid;&quot;&gt;&lt;p style=&quot;margin:0px;margin-left:4px;&quot;&gt;&lt;br&gt;&lt;/p&gt;" style="verticalAlign=top;align=left;overflow=fill;html=1;whiteSpace=wrap;" parent="1" vertex="1">
          <mxGeometry x="280" y="120" width="200" height="160" as="geometry" />
        </mxCell>
        <mxCell id="gEqkEuhPKTjkz4cQfdiY-2" value="&lt;p style=&quot;margin:0px;margin-top:4px;text-align:center;&quot;&gt;&lt;b&gt;Person&lt;/b&gt;&lt;/p&gt;&lt;hr size=&quot;1&quot; style=&quot;border-style:solid;&quot;&gt;&lt;p style=&quot;margin:0px;margin-left:4px;&quot;&gt;- id: int&lt;/p&gt;&lt;p style=&quot;margin:0px;margin-left:4px;&quot;&gt;- name: String&lt;/p&gt;&lt;p style=&quot;margin:0px;margin-left:4px;&quot;&gt;- portrait: Image&lt;/p&gt;&lt;p style=&quot;margin:0px;margin-left:4px;&quot;&gt;- description: String&lt;/p&gt;&lt;p style=&quot;margin:0px;margin-left:4px;&quot;&gt;- dateOfBirth: Date&lt;/p&gt;&lt;p style=&quot;margin:0px;margin-left:4px;&quot;&gt;- placeOfBirth: String&lt;/p&gt;&lt;hr size=&quot;1&quot; style=&quot;border-style:solid;&quot;&gt;&lt;p style=&quot;margin:0px;margin-left:4px;&quot;&gt;&lt;br&gt;&lt;/p&gt;" style="verticalAlign=top;align=left;overflow=fill;html=1;whiteSpace=wrap;" parent="1" vertex="1">
          <mxGeometry x="600" y="133.5" width="200" height="133" as="geometry" />
        </mxCell>
        <mxCell id="3gtE6chyRMLWBZLKzEQ4-2" style="edgeStyle=orthogonalEdgeStyle;rounded=0;orthogonalLoop=1;jettySize=auto;html=1;entryX=0;entryY=0.25;entryDx=0;entryDy=0;endArrow=none;startFill=0;" edge="1" parent="1" source="rBR9P2eJhJjZl88GzsGn-1" target="gEqkEuhPKTjkz4cQfdiY-1">
          <mxGeometry relative="1" as="geometry" />
        </mxCell>
        <mxCell id="rBR9P2eJhJjZl88GzsGn-1" value="&lt;p style=&quot;margin:0px;margin-top:4px;text-align:center;&quot;&gt;&lt;font style=&quot;font-size: 10px;&quot;&gt;&amp;lt;&amp;lt;enumeration&amp;gt;&amp;gt;&lt;/font&gt;&lt;/p&gt;&lt;p style=&quot;margin:0px;margin-top:4px;text-align:center;&quot;&gt;&lt;b&gt;Genre&lt;/b&gt;&lt;/p&gt;&lt;hr size=&quot;1&quot; style=&quot;border-style:solid;&quot;&gt;&lt;p style=&quot;margin:0px;margin-left:4px;&quot;&gt;Action, Adventure,&amp;nbsp;&lt;span style=&quot;background-color: transparent; color: light-dark(rgb(0, 0, 0), rgb(255, 255, 255));&quot;&gt;Comedy, Drama, Fantasy, History,&amp;nbsp;&lt;/span&gt;&lt;span style=&quot;background-color: transparent; color: light-dark(rgb(0, 0, 0), rgb(255, 255, 255));&quot;&gt;Horror, Music, ...&lt;/span&gt;&lt;/p&gt;" style="verticalAlign=top;align=left;overflow=fill;html=1;whiteSpace=wrap;" parent="1" vertex="1">
          <mxGeometry x="-40" y="60" width="200" height="80" as="geometry" />
        </mxCell>
        <mxCell id="3gtE6chyRMLWBZLKzEQ4-3" style="edgeStyle=orthogonalEdgeStyle;rounded=0;orthogonalLoop=1;jettySize=auto;html=1;entryX=0;entryY=0.5;entryDx=0;entryDy=0;endArrow=none;startFill=0;" edge="1" parent="1" source="rBR9P2eJhJjZl88GzsGn-2" target="gEqkEuhPKTjkz4cQfdiY-1">
          <mxGeometry relative="1" as="geometry" />
        </mxCell>
        <mxCell id="rBR9P2eJhJjZl88GzsGn-2" value="&lt;p style=&quot;margin:0px;margin-top:4px;text-align:center;&quot;&gt;&lt;font style=&quot;font-size: 10px;&quot;&gt;&amp;lt;&amp;lt;enumeration&amp;gt;&amp;gt;&lt;/font&gt;&lt;/p&gt;&lt;p style=&quot;margin:0px;margin-top:4px;text-align:center;&quot;&gt;&lt;b&gt;Country&lt;/b&gt;&lt;/p&gt;&lt;hr size=&quot;1&quot; style=&quot;border-style:solid;&quot;&gt;&lt;p style=&quot;margin:0px;margin-left:4px;&quot;&gt;Afghanistan,&amp;nbsp;&lt;span style=&quot;background-color: transparent; color: light-dark(rgb(0, 0, 0), rgb(255, 255, 255));&quot;&gt;France,&amp;nbsp;&lt;/span&gt;&lt;span style=&quot;background-color: transparent; color: light-dark(rgb(0, 0, 0), rgb(255, 255, 255));&quot;&gt;Germany,&amp;nbsp;&lt;/span&gt;&lt;span style=&quot;background-color: transparent; color: light-dark(rgb(0, 0, 0), rgb(255, 255, 255));&quot;&gt;Italy,&lt;/span&gt;&lt;/p&gt;&lt;p style=&quot;margin:0px;margin-left:4px;&quot;&gt;Japan, Poland, Spain, UK, USA&lt;/p&gt;" style="verticalAlign=top;align=left;overflow=fill;html=1;whiteSpace=wrap;" parent="1" vertex="1">
          <mxGeometry x="-40" y="160" width="200" height="80" as="geometry" />
        </mxCell>
        <mxCell id="3gtE6chyRMLWBZLKzEQ4-4" style="edgeStyle=orthogonalEdgeStyle;rounded=0;orthogonalLoop=1;jettySize=auto;html=1;entryX=0;entryY=0.75;entryDx=0;entryDy=0;endArrow=none;startFill=0;" edge="1" parent="1" source="rBR9P2eJhJjZl88GzsGn-3" target="gEqkEuhPKTjkz4cQfdiY-1">
          <mxGeometry relative="1" as="geometry" />
        </mxCell>
        <mxCell id="rBR9P2eJhJjZl88GzsGn-3" value="&lt;p style=&quot;margin:0px;margin-top:4px;text-align:center;&quot;&gt;&lt;font style=&quot;font-size: 10px;&quot;&gt;&amp;lt;&amp;lt;enumeration&amp;gt;&amp;gt;&lt;/font&gt;&lt;/p&gt;&lt;p style=&quot;margin:0px;margin-top:4px;text-align:center;&quot;&gt;&lt;b&gt;AgeRating&lt;/b&gt;&lt;/p&gt;&lt;hr size=&quot;1&quot; style=&quot;border-style:solid;&quot;&gt;&lt;p style=&quot;margin:0px;margin-left:4px;&quot;&gt;A, 7, 12, 1&lt;span style=&quot;background-color: transparent; color: light-dark(rgb(0, 0, 0), rgb(255, 255, 255));&quot;&gt;6,&amp;nbsp;&lt;/span&gt;&lt;span style=&quot;background-color: transparent; color: light-dark(rgb(0, 0, 0), rgb(255, 255, 255));&quot;&gt;18&lt;/span&gt;&lt;/p&gt;" style="verticalAlign=top;align=left;overflow=fill;html=1;whiteSpace=wrap;" parent="1" vertex="1">
          <mxGeometry x="-40" y="260" width="200" height="80" as="geometry" />
        </mxCell>
      </root>
    </mxGraphModel>
  </diagram>
</mxfile>
